<svg width="1234" height="1199" viewBox="0 0 1234 1199" fill="none" xmlns="http://www.w3.org/2000/svg">
<g clip-path="url(#clip0_644_36)">
<path d="M195.223 615.633L288.552 570.252L89.9062 425.549L101.037 381.025L301.396 396.437L230.328 245.74L452.093 297.97L510.317 55.6562L619.915 267.146L732.081 130.149L783.455 267.146L1082.28 91.618L1026.63 190.941L1116.53 154.979L932.44 470.073L1073.72 583.952L950.42 625.051L1173.9 819.416L932.44 803.148L999.226 952.988L783.455 897.333L721.806 1112.25L619.915 926.445L510.317 1053.17L452.093 940.145L152.411 1103.69L183.236 1020.63L113.881 1053.17L301.396 731.224L214.916 678.138L195.223 615.633Z" fill="#061826"/>
<path d="M685.668 1101.12L675.864 1114.82L611.385 956.145L493.932 1111.39L480.934 1033.07L454.516 1060.48L439.643 963.829L95.4375 1167.15L161.013 1055.2L56.5183 1116.25L283.408 736.607L168.065 665.528L190.94 655.058L127.579 616.555L257.855 566.177L41.1351 405.796L69.1802 407.192L0 354.248L283.413 378.688L256.663 328.379L225.177 271.426L194.365 213.856L446.354 280.803L507.798 0L540.728 74.4923L546.667 50.5177L625.643 240.601L742.308 88.4865L755.028 170.783L781.078 137.475L795.86 237.31L1139.99 34.6877L1075.37 143.501L1178.79 83.1796L951.987 462.412L1069 532.132L1043.75 544.309L1107.55 584.197L977.794 636.178L1196.16 794.31L1165.33 792.509L1233.69 843.694L952.03 820.658L1043.98 987.151L788.424 919.863L727.598 1199L685.668 1101.12ZM763.549 877.279L973.081 932.609L893.714 786.936L1115.67 800.722L1047.17 748.863L1074.66 747.603L909.006 624.418L1030.05 577.118L965.901 537.603L990.662 525.741L907.34 475.132L1080.35 181.689L977.666 241.023L1041.54 130.796L769.935 291.791L758.92 224.919L733.804 255.161L720.109 172.963L617.197 310.672L557.473 167.303L551.416 185.624L517.85 114.735L472.629 321.3L262.095 266.773L343.349 417.47L120.729 399.248L188.173 451.586L161.465 453.069L326.16 574.659L208.964 619.913L257.716 654.224L233.346 667.441L329.288 725.279L155.117 1017.91L258.678 957.65L194.93 1068L465.856 907.956L476.494 976.07L502.374 944.464L516.411 1025.4L620.034 890.94L678.597 1032.2L685.649 1010.35L718.551 1081.42L763.549 877.279Z" fill="#2EE8B6"/>
<path d="M431.122 701.481L336.897 646.417L445.27 606.341L550.094 616.365L563.249 628.464L529.402 685.374L588.599 653.863L598.927 664.044L609.168 770.478L527.747 880.412L513.332 785.945L309.191 907.704L431.122 701.481ZM680.018 909.319L625.489 771.912L635.145 666.946L647.014 654.816L707.541 688.951L672.875 629.006L683.625 617.659L789.141 606.453L938.433 715.182L791.773 704.354L857.414 826.313L707.016 783.819L680.018 909.319ZM296.258 482.195L443.982 494.558L378.061 372.878L526.06 411.27L554.712 289.406L609.611 427.641L600.814 530.497L587.49 543.837L529.98 510.214L561.236 568.682L547.999 581.541L445.79 590.788L296.258 482.195ZM683.352 581.583L671.714 569.933L704.239 511.41L645.697 544.134L635.093 532.629L624.97 426.626L706.283 318.013L721.476 411.572L924.148 290.463L803.779 494.775L897.29 550.652L789.87 589.979L683.352 581.583Z" fill="white"/>
</g>
<defs>
<clipPath id="clip0_644_36">
<rect width="1233.69" height="1199" fill="white"/>
</clipPath>
</defs>
</svg>
